<svg id="Component_20_2" data-name="Component 20 – 2" xmlns="http://www.w3.org/2000/svg" width="324.811" height="192.456" viewBox="0 0 324.811 192.456">
  <path id="Path_17" data-name="Path 17" d="M324.811,0V182.052a10.631,10.631,0,0,0-10.848,10.4H303.436a4.226,4.226,0,0,0-8.444,0h-9.047a4.226,4.226,0,0,0-8.444,0h-9.047a4.226,4.226,0,0,0-8.444,0h-9.642v-3.021a13.3,13.3,0,0,0-13.57-13.017H88.015c-7.5,0-13.573,5.827-13.573,13.017v3.021H64.147a4.226,4.226,0,0,0-8.444,0H46.656a4.226,4.226,0,0,0-8.444,0h-9.05a4.226,4.226,0,0,0-8.444,0H10.85A10.632,10.632,0,0,0,0,182.052V0H55.777v3A13.305,13.305,0,0,0,69.35,16.014H255.469a13.3,13.3,0,0,0,13.568-13.02V0Z" transform="translate(0 0.001)" fill="#fff"/>
</svg>
