<svg xmlns="http://www.w3.org/2000/svg" xmlns:xlink="http://www.w3.org/1999/xlink" width="343.421" height="89.399" viewBox="0 0 343.421 89.399">
  <defs>
    <filter id="Path_4" x="218.202" y="2.115" width="125.219" height="87.284" filterUnits="userSpaceOnUse">
      <feOffset dy="3" input="SourceAlpha"/>
      <feGaussianBlur stdDeviation="3" result="blur"/>
      <feFlood flood-opacity="0.349"/>
      <feComposite operator="in" in2="blur"/>
      <feComposite in="SourceGraphic"/>
    </filter>
    <filter id="Path_5" x="0" y="0" width="236.202" height="87.284" filterUnits="userSpaceOnUse">
      <feOffset dy="1" input="SourceAlpha"/>
      <feGaussianBlur stdDeviation="3" result="blur-2"/>
      <feFlood flood-opacity="0.349"/>
      <feComposite operator="in" in2="blur-2"/>
      <feComposite in="SourceGraphic"/>
    </filter>
  </defs>
  <g id="Group_36785" data-name="Group 36785" transform="translate(5666.421 -3222.857)">
    <g transform="matrix(1, 0, 0, 1, -5666.42, 3222.86)" filter="url(#Path_4)">
      <path id="Path_4-2" data-name="Path 4" d="M1334.8,70.114h-88.563A7.616,7.616,0,0,0,1239.9,73.4a5.712,5.712,0,0,1-4.7,2.7v2.2a1.431,1.431,0,1,1,0,2.854V83.27a1.431,1.431,0,1,1,0,2.855v2.111a1.431,1.431,0,1,1,0,2.855V93.2a1.431,1.431,0,1,1,0,2.855v2.111a1.431,1.431,0,1,1,0,2.855v2.113a1.431,1.431,0,1,1,0,2.854V108.1a1.431,1.431,0,1,1,0,2.855v2.111a1.431,1.431,0,1,1,0,2.855v2.111a1.431,1.431,0,1,1,0,2.855V123a1.431,1.431,0,1,1,0,2.855v2.113a1.431,1.431,0,1,1,0,2.854v2.062a5.778,5.778,0,0,1,4.861,2.958,7.642,7.642,0,0,0,6.534,3.553h88.2a7.572,7.572,0,0,0,7.621-7.521V77.635a7.572,7.572,0,0,0-7.621-7.521" transform="translate(-1008 -62)" fill="#fff"/>
    </g>
    <g transform="matrix(1, 0, 0, 1, -5666.42, 3222.86)" filter="url(#Path_5)">
      <path id="Path_5-2" data-name="Path 5" d="M218.2,78.3V76.1a5.971,5.971,0,0,1-4.87-2.7,7.981,7.981,0,0,0-6.571-3.284H7.905A7.72,7.72,0,0,0,0,77.636v54.242A7.721,7.721,0,0,0,7.905,139.4h198.48a8,8,0,0,0,6.776-3.555,6.029,6.029,0,0,1,5.04-2.956v-2.062a1.458,1.458,0,0,1-1.588-1.439,1.441,1.441,0,0,1,1.588-1.415v-2.113a1.459,1.459,0,0,1-1.588-1.439A1.442,1.442,0,0,1,218.2,123v-2.111a1.459,1.459,0,0,1-1.588-1.44,1.442,1.442,0,0,1,1.588-1.415v-2.111a1.459,1.459,0,0,1-1.588-1.44,1.441,1.441,0,0,1,1.588-1.415V110.96a1.459,1.459,0,0,1-1.588-1.44A1.441,1.441,0,0,1,218.2,108.1v-2.113a1.458,1.458,0,0,1-1.588-1.439,1.441,1.441,0,0,1,1.588-1.415v-2.113a1.459,1.459,0,0,1-1.588-1.439A1.442,1.442,0,0,1,218.2,98.17V96.059a1.459,1.459,0,0,1-1.588-1.44A1.442,1.442,0,0,1,218.2,93.2V91.093a1.459,1.459,0,0,1-1.588-1.44,1.442,1.442,0,0,1,1.588-1.415V86.127a1.459,1.459,0,0,1-1.588-1.44,1.441,1.441,0,0,1,1.588-1.415V81.159a1.458,1.458,0,0,1-1.588-1.439A1.441,1.441,0,0,1,218.2,78.3" transform="translate(9 -62.11)" fill="#fff"/>
    </g>
  </g>
</svg>
