<svg id="Icon_map-clothing-store" data-name="Icon map-clothing-store" xmlns="http://www.w3.org/2000/svg" width="15.182" height="11.5" viewBox="0 0 15.182 11.5">
  <path id="Icon_map-clothing-store-2" data-name="Icon map-clothing-store" d="M16.974,8.425a.363.363,0,0,1-.064.291l-1.823,2.713a.405.405,0,0,1-.328.162.943.943,0,0,1-.165-.017l-1.461-.359v6.426a.325.325,0,0,1-.338.338h-7.1a.325.325,0,0,1-.338-.338V11.215l-1.312.362a.309.309,0,0,1-.369-.145L1.862,8.726a.341.341,0,0,1-.047-.284A.33.33,0,0,1,2,8.225L5.691,6.48H7.382a.323.323,0,0,1,.338.338c0,.7.977,1.191,1.674,1.191S11.1,7.518,11.1,6.818a.325.325,0,0,1,.338-.338h1.691l3.653,1.711a.364.364,0,0,1,.189.233Z" transform="translate(-1.802 -6.48)"/>
</svg>
