<svg xmlns="http://www.w3.org/2000/svg" width="324.905" height="597.387" viewBox="0 0 324.905 597.387"><g transform="translate(4055 -1619.613)"><g transform="translate(-4055 1619.613)"><path d="M1533.9,2.993V0h-55.775V182.05a10.633,10.633,0,0,1,10.849,10.407q0,.2-.012.4a10.653,10.653,0,0,1-10.837,10.008V597.384H1533.9v-1.263c0-7.186,6.076-13.015,13.572-13.015h186.118a13.3,13.3,0,0,1,13.568,13.015v1.262h55.776V202.863a10.652,10.652,0,0,1-10.837-10.008q-.012-.2-.012-.4a10.633,10.633,0,0,1,10.849-10.407V0h-55.775v3a13.3,13.3,0,0,1-13.569,13.019H1547.47A13.3,13.3,0,0,1,1533.9,2.993m-35.057,189.461a4.226,4.226,0,1,1,4.222,4.05,4.139,4.139,0,0,1-4.222-4.05m17.491,0a4.226,4.226,0,1,1,4.222,4.05,4.139,4.139,0,0,1-4.222-4.05m17.491,0a4.226,4.226,0,1,1,4.222,4.05,4.138,4.138,0,0,1-4.222-4.05m247.735,0a4.226,4.226,0,1,1-4.222-4.05,4.139,4.139,0,0,1,4.222,4.05m-17.491,0a4.226,4.226,0,1,1-4.222-4.05,4.138,4.138,0,0,1,4.222,4.05m-17.491,0a4.226,4.226,0,1,1-4.222-4.05,4.138,4.138,0,0,1,4.222,4.05m-31.657-16.04a13.3,13.3,0,0,1,13.572,13.019v6.046c0,7.186-6.077,13.015-13.572,13.015H1566.136c-7.5,0-13.572-5.829-13.572-13.015v-6.046a13.3,13.3,0,0,1,13.572-13.019Z" transform="translate(-1478.122 0.003)" fill="#fff"/></g><g transform="translate(-4054.905 1619.613)"><path d="M324.811,0V182.052a10.631,10.631,0,0,0-10.848,10.4H303.436a4.226,4.226,0,0,0-8.444,0h-9.047a4.226,4.226,0,0,0-8.444,0h-9.047a4.226,4.226,0,0,0-8.444,0h-9.642v-3.021a13.3,13.3,0,0,0-13.57-13.017H88.015c-7.5,0-13.573,5.827-13.573,13.017v3.021H64.147a4.226,4.226,0,0,0-8.444,0H46.656a4.226,4.226,0,0,0-8.444,0h-9.05a4.226,4.226,0,0,0-8.444,0H10.85A10.632,10.632,0,0,0,0,182.052V0H55.777v3A13.305,13.305,0,0,0,69.35,16.014H255.469a13.3,13.3,0,0,0,13.568-13.02V0Z" transform="translate(0 0.001)" fill="#f3e008"/></g></g></svg>